<svg width="140" height="28" viewBox="0 0 140 28" fill="none" xmlns="http://www.w3.org/2000/svg">
<g id="logo" clip-path="url(#clip0_1323_3532)">
<g id="Group">
<path id="Vector" d="M14.7127 28.0025H0.661818C0.305455 28.0025 0 27.7985 0 27.4925V0.308536C0 0.0025248 0.661818 -0.150481 0.865455 0.206532L15.5782 27.1355C15.8327 27.5435 15.3745 28.0535 14.7636 28.0535L14.7127 28.0025Z" fill="#E64646"/>
<path id="Vector_2" d="M4.78545 0.00292969H12.7273C13.0327 0.00292969 13.2873 0.206937 13.2873 0.461946V15.6605C13.3382 18.2616 12.3709 17.8026 11.4545 15.9665L4.07272 0.869961C3.86909 0.461946 4.22545 0.00292969 4.78545 0.00292969Z" fill="#E64646"/>
<path id="Vector_3" d="M23.9782 6.27615V0.00292969H30.1382C30.5455 0.00292969 30.7491 0.461946 30.4437 0.716955L24.4873 6.48016C24.2837 6.63317 23.9782 6.53116 23.9782 6.27615Z" fill="#E64646"/>
<path id="Vector_4" d="M23.9782 14.4361V8.21387H30.1382C30.5455 8.21387 30.7491 8.67288 30.4437 8.92789L24.4873 14.6401C24.2837 14.7931 23.9782 14.6911 23.9782 14.4361Z" fill="#E64646"/>
<path id="Vector_5" d="M23.9782 17.8022V28.0026H30.1382C30.5455 28.0026 30.7491 27.2375 30.4437 26.8295L24.64 17.7512C24.64 17.7512 23.9782 16.7312 23.9782 17.7512V17.8022Z" fill="#E64646"/>
<path id="Vector_6" d="M18.7854 0.00292969H21.6873V28.0029H18.7854C18.0218 28.0029 17.4109 27.3909 17.4109 26.6259V1.37998C17.36 0.614952 18.0218 0.00292969 18.7854 0.00292969Z" fill="#E64646"/>
</g>
<g id="Group_2">
<path id="Vector_7" d="M56.3055 15.1474C56.6109 15.5555 57.0182 16.0655 57.5273 16.7285C58.0364 17.3915 58.4946 18.1055 59.0036 18.8706C59.5127 19.6356 60.0218 20.4516 60.5309 21.3187C61.04 22.1857 61.4473 23.0017 61.8036 23.7668H58.6473C58.24 23.0017 57.8327 22.2367 57.3746 21.4717C56.9164 20.7066 56.4582 19.9416 55.9491 19.2786C55.4909 18.5646 54.9818 17.9015 54.5236 17.2895C54.0655 16.6775 53.6582 16.1165 53.2509 15.7085C52.9964 15.7085 52.7418 15.7085 52.4873 15.7085H49.0764V23.7668H46.2255V3.46803C47.04 3.26402 47.9564 3.16202 48.9236 3.06001C49.9418 3.00901 50.8582 2.95801 51.6727 2.95801C54.5746 2.95801 56.7636 3.51903 58.2909 4.59007C59.8182 5.6611 60.5818 7.29316 60.5818 9.48624C60.5818 11.6793 60.2255 12.0363 59.5127 13.0054C58.8 13.9744 57.7309 14.6884 56.3055 15.1984V15.1474ZM51.9273 5.5081C50.7055 5.5081 49.7382 5.5081 49.1273 5.6101V13.3624H51.1636C52.1309 13.3624 53.0473 13.3624 53.8109 13.2094C54.5746 13.0564 55.2873 12.9034 55.7964 12.6484C56.3564 12.3933 56.7636 11.9853 57.0691 11.4753C57.3746 10.9653 57.5273 10.3023 57.5273 9.48624C57.5273 8.67021 57.3746 8.05819 57.0691 7.54817C56.7636 7.03815 56.3564 6.63014 55.8473 6.32413C55.3382 6.01812 54.7273 5.81411 54.0655 5.71211C53.4036 5.6101 52.64 5.5591 51.8764 5.5591L51.9273 5.5081Z" fill="#494949"/>
<path id="Vector_8" d="M62.0582 16.0656C62.0582 14.6885 62.2618 13.5155 62.6691 12.4954C63.0763 11.4754 63.5854 10.6084 64.2473 9.94535C64.9091 9.28232 65.6727 8.7723 66.4873 8.41529C67.3527 8.05828 68.2182 7.90527 69.0836 7.90527C71.1709 7.90527 72.7491 8.5683 73.8691 9.84334C74.9891 11.1184 75.5491 13.1075 75.5491 15.7596V16.2186C75.5491 16.4226 75.5491 16.5756 75.5491 16.7286H65.0109C65.1127 18.3096 65.5709 19.5337 66.3854 20.4007C67.2 21.2167 68.4727 21.6248 70.2036 21.6248C71.9345 21.6248 71.9854 21.5228 72.6473 21.3698C73.3091 21.2168 73.8182 21.0637 74.1236 20.8597L74.5309 23.1548C74.1745 23.3078 73.6145 23.5118 72.7491 23.7158C71.8836 23.9198 70.9673 24.0218 69.8982 24.0218C68.8291 24.0218 67.4036 23.8178 66.4363 23.4098C65.4691 23.0018 64.6545 22.4408 64.0436 21.7268C63.4327 21.0127 62.9236 20.1457 62.6182 19.1767C62.3127 18.2076 62.16 17.1366 62.16 15.9636L62.0582 16.0656ZM72.6473 14.5865C72.6473 13.3625 72.3418 12.2914 71.7309 11.5264C71.0691 10.7104 70.2036 10.3024 69.0836 10.3024C67.9636 10.3024 67.9127 10.4044 67.4036 10.6594C66.8945 10.9144 66.4873 11.2204 66.1818 11.6284C65.8254 12.0364 65.5709 12.4954 65.4182 13.0055C65.2145 13.5155 65.1127 14.0255 65.0618 14.5865H72.6982H72.6473Z" fill="#494949"/>
<path id="Vector_9" d="M93.52 23.7668C93.2146 22.8998 92.9091 21.9818 92.6036 21.1148C92.2982 20.2477 92.0437 19.3807 91.6873 18.4627H82.6764L80.8437 23.7158H77.9418C78.7055 21.5228 79.4182 19.5337 80.08 17.6466C80.7418 15.7596 81.4036 14.0255 82.0655 12.3934C82.7273 10.7614 83.3382 9.12932 84 7.65027C84.6109 6.12022 85.2727 4.64116 85.9855 3.16211H88.5309C89.2436 4.64116 89.9055 6.17122 90.5164 7.65027C91.1273 9.18032 91.7891 10.7614 92.4509 12.3934C93.1127 14.0765 93.7746 15.8106 94.4364 17.6466C95.0982 19.4827 95.8109 21.5228 96.5746 23.7158H93.52V23.7668ZM90.8727 16.1676C90.2618 14.4335 89.6509 12.8015 89.04 11.1694C88.4291 9.53734 87.8182 8.00728 87.1564 6.52823C86.4946 8.00728 85.8327 9.58834 85.2218 11.1694C84.6109 12.8015 84 14.4335 83.44 16.1676H90.8727Z" fill="#494949"/>
<path id="Vector_10" d="M103.193 24.0725C101.513 24.0725 100.291 23.6645 99.5782 22.9504C98.8655 22.2364 98.5091 21.1654 98.5091 19.7373V1.22366L101.258 0.764648V19.3293C101.258 19.7883 101.258 20.1453 101.36 20.4514C101.462 20.7574 101.564 20.9614 101.767 21.1654C101.971 21.3694 102.175 21.4714 102.48 21.5734C102.785 21.6754 103.142 21.7264 103.6 21.7774L103.193 24.0725Z" fill="#494949"/>
<path id="Vector_11" d="M108.029 5.55885C107.52 5.55885 107.113 5.40584 106.756 5.04883C106.4 4.74282 106.247 4.2838 106.247 3.72278C106.247 3.16176 106.4 2.70275 106.756 2.39674C107.113 2.09073 107.52 1.88672 108.029 1.88672C108.538 1.88672 108.945 2.03972 109.302 2.39674C109.658 2.70275 109.811 3.16176 109.811 3.72278C109.811 4.2838 109.658 4.74282 109.302 5.04883C108.945 5.35484 108.538 5.55885 108.029 5.55885ZM109.455 23.7665H106.705V8.31295H109.455V23.7665Z" fill="#494949"/>
<path id="Vector_12" d="M120.298 24.1239C119.076 24.1239 117.956 23.9198 117.04 23.5118C116.124 23.1038 115.309 22.5428 114.647 21.8288C113.985 21.1147 113.527 20.2477 113.222 19.2787C112.916 18.3096 112.764 17.2386 112.764 16.0146C112.764 14.7905 112.916 13.7195 113.273 12.7504C113.629 11.7814 114.087 10.9144 114.749 10.2004C115.36 9.48633 116.175 8.92531 117.091 8.5173C118.007 8.10928 119.025 7.90527 120.145 7.90527C121.265 7.90527 121.52 7.95628 122.233 8.05828C122.945 8.16028 123.607 8.36429 124.218 8.6193L123.607 10.9654C123.2 10.7614 122.691 10.6084 122.182 10.5064C121.622 10.4044 121.062 10.3534 120.451 10.3534C118.924 10.3534 117.753 10.8634 116.887 11.8324C116.073 12.8014 115.665 14.2295 115.665 16.0656C115.665 17.9016 115.767 17.6466 115.971 18.3606C116.175 19.0747 116.48 19.6357 116.836 20.1457C117.244 20.6557 117.753 21.0127 118.415 21.2677C119.025 21.5228 119.84 21.6758 120.705 21.6758C121.571 21.6758 122.08 21.6248 122.691 21.4718C123.302 21.3188 123.76 21.1657 124.065 21.0127L124.473 23.3078C124.32 23.4098 124.065 23.5118 123.811 23.6138C123.505 23.7158 123.2 23.7668 122.793 23.8688C122.436 23.9198 122.029 24.0218 121.571 24.0218C121.164 24.0218 120.756 24.0728 120.349 24.0728L120.298 24.1239Z" fill="#494949"/>
<path id="Vector_13" d="M126.509 16.0656C126.509 14.6885 126.713 13.5155 127.12 12.4954C127.527 11.4754 128.036 10.6084 128.698 9.94535C129.36 9.28232 130.124 8.7723 130.938 8.41529C131.804 8.05828 132.669 7.90527 133.535 7.90527C135.622 7.90527 137.2 8.5683 138.32 9.84334C139.44 11.1184 140 13.1075 140 15.7596V16.2186C140 16.4226 140 16.5756 140 16.7286H129.462C129.564 18.3096 130.022 19.5337 130.836 20.4007C131.651 21.2167 132.924 21.6248 134.655 21.6248C136.385 21.6248 136.436 21.5228 137.098 21.3698C137.76 21.2168 138.269 21.0637 138.575 20.8597L138.982 23.1548C138.625 23.3078 138.065 23.5118 137.2 23.7158C136.335 23.9198 135.418 24.0218 134.349 24.0218C133.28 24.0218 131.855 23.8178 130.887 23.4098C129.92 23.0018 129.105 22.4408 128.495 21.7268C127.884 21.0127 127.375 20.1457 127.069 19.1767C126.764 18.2076 126.611 17.1366 126.611 15.9636L126.509 16.0656ZM137.098 14.5865C137.098 13.3625 136.793 12.2914 136.182 11.5264C135.52 10.7104 134.655 10.3024 133.535 10.3024C132.415 10.3024 132.364 10.4044 131.855 10.6594C131.345 10.9144 130.938 11.2204 130.633 11.6284C130.276 12.0364 130.022 12.4954 129.869 13.0055C129.665 13.5155 129.564 14.0255 129.513 14.5865H137.149H137.098Z" fill="#494949"/>
</g>
</g>
<defs>
<clipPath id="clip0_1323_3532">
<rect width="140" height="28" fill="white"/>
</clipPath>
</defs>
</svg>
