<svg width="64" height="64" viewBox="0 0 64 64" fill="none" xmlns="http://www.w3.org/2000/svg">
<g id="memory_24dp_E8EAED_FILL1_wght300_GRAD0_opsz24 1">
<path id="Vector" d="M25.3333 38.6662V25.3329H38.6667V38.6662H25.3333ZM24.6667 54.0509V49.3329H19.4873C18.1402 49.3329 17 48.8662 16.0667 47.9329C15.1333 46.9996 14.6667 45.8594 14.6667 44.5122V39.3329H9.94867V35.3329H14.6667V28.6662H9.94867V24.6662H14.6667V19.4869C14.6667 18.1398 15.1333 16.9996 16.0667 16.0662C17 15.1329 18.1402 14.6662 19.4873 14.6662H24.6667V9.94824H28.6667V14.6662H35.3333V9.94824H39.3333V14.6662H44.5127C45.8598 14.6662 47 15.1329 47.9333 16.0662C48.8667 16.9996 49.3333 18.1398 49.3333 19.4869V24.6662H54.0513V28.6662H49.3333V35.3329H54.0513V39.3329H49.3333V44.5122C49.3333 45.8594 48.8667 46.9996 47.9333 47.9329C47 48.8662 45.8598 49.3329 44.5127 49.3329H39.3333V54.0509H35.3333V49.3329H28.6667V54.0509H24.6667ZM44.5127 45.3329C44.718 45.3329 44.906 45.2474 45.0767 45.0762C45.2478 44.9056 45.3333 44.7176 45.3333 44.5122V19.4869C45.3333 19.2816 45.2478 19.0936 45.0767 18.9229C44.906 18.7518 44.718 18.6662 44.5127 18.6662H19.4873C19.282 18.6662 19.094 18.7518 18.9233 18.9229C18.7522 19.0936 18.6667 19.2816 18.6667 19.4869V44.5122C18.6667 44.7176 18.7522 44.9056 18.9233 45.0762C19.094 45.2474 19.282 45.3329 19.4873 45.3329H44.5127Z" fill="#E64646"/>
</g>
</svg>
