<svg width="63" height="63" viewBox="0 0 63 63" fill="none" xmlns="http://www.w3.org/2000/svg">
<g id="stadia_controller_24dp_E8EAED_FILL1_wght300_GRAD0_opsz24 1">
<path id="Vector" d="M12.4031 51.8438C9.92951 51.8438 7.82622 50.9705 6.09329 49.224C4.35991 47.4771 3.46632 45.3499 3.41251 42.8426C3.41251 42.4725 3.43022 42.1074 3.46566 41.7473C3.5011 41.3873 3.56257 41.0189 3.65007 40.6422L9.16257 18.5922C9.73701 16.3798 10.9064 14.5873 12.6709 13.2149C14.4353 11.8425 16.4461 11.1562 18.7031 11.1562H44.2969C46.5539 11.1562 48.5647 11.8425 50.3291 13.2149C52.0936 14.5873 53.263 16.3798 53.8374 18.5922L59.3499 40.6422C59.4374 41.0189 59.5099 41.3982 59.5672 41.7802C59.6245 42.1621 59.6531 42.5381 59.6531 42.9082C59.6531 45.4156 58.7689 47.5317 57.0006 49.2568C55.2318 50.9814 53.0979 51.8438 50.5989 51.8438C48.8777 51.8438 47.2887 51.392 45.8319 50.4886C44.3745 49.5847 43.269 48.3604 42.5152 46.8156L40.6521 42.9844C40.383 42.4375 39.9792 42.0273 39.4406 41.7539C38.9021 41.4805 38.3333 41.3437 37.7344 41.3437H25.2656C24.6711 41.3437 24.1034 41.4783 23.5627 41.7473C23.0219 42.0168 22.617 42.4292 22.3479 42.9844L20.4848 46.8156C19.7481 48.3774 18.6454 49.6059 17.1767 50.5011C15.708 51.3962 14.1168 51.8438 12.4031 51.8438ZM35.4375 28.5718C36.0802 28.5718 36.6279 28.3456 37.0808 27.8932C37.5331 27.4404 37.7593 26.8927 37.7593 26.25C37.7593 25.6073 37.5331 25.0596 37.0808 24.6068C36.6279 24.1544 36.0802 23.9282 35.4375 23.9282C34.7948 23.9282 34.2471 24.1544 33.7943 24.6068C33.3419 25.0596 33.1157 25.6073 33.1157 26.25C33.1157 26.8927 33.3419 27.4404 33.7943 27.8932C34.2471 28.3456 34.7948 28.5718 35.4375 28.5718ZM40.6875 23.3218C41.3302 23.3218 41.8779 23.0956 42.3308 22.6432C42.7831 22.1904 43.0093 21.6427 43.0093 21C43.0093 20.3573 42.7831 19.8096 42.3308 19.3568C41.8779 18.9044 41.3302 18.6782 40.6875 18.6782C40.0448 18.6782 39.4971 18.9044 39.0443 19.3568C38.5919 19.8096 38.3657 20.3573 38.3657 21C38.3657 21.6427 38.5919 22.1904 39.0443 22.6432C39.4971 23.0956 40.0448 23.3218 40.6875 23.3218ZM40.6875 33.8218C41.3302 33.8218 41.8779 33.5956 42.3308 33.1432C42.7831 32.6904 43.0093 32.1427 43.0093 31.5C43.0093 30.8573 42.7831 30.3096 42.3308 29.8567C41.8779 29.4044 41.3302 29.1782 40.6875 29.1782C40.0448 29.1782 39.4971 29.4044 39.0443 29.8567C38.5919 30.3096 38.3657 30.8573 38.3657 31.5C38.3657 32.1427 38.5919 32.6904 39.0443 33.1432C39.4971 33.5956 40.0448 33.8218 40.6875 33.8218ZM45.9375 28.5718C46.5802 28.5718 47.1279 28.3456 47.5808 27.8932C48.0331 27.4404 48.2593 26.8927 48.2593 26.25C48.2593 25.6073 48.0331 25.0596 47.5808 24.6068C47.1279 24.1544 46.5802 23.9282 45.9375 23.9282C45.2948 23.9282 44.7471 24.1544 44.2943 24.6068C43.8419 25.0596 43.6157 25.6073 43.6157 26.25C43.6157 26.8927 43.8419 27.4404 44.2943 27.8932C44.7471 28.3456 45.2948 28.5718 45.9375 28.5718ZM22.3112 32.4089C22.7631 32.4089 23.1372 32.261 23.4334 31.9653C23.7296 31.6695 23.8777 31.2957 23.8777 30.8438V27.8152H26.9063C27.3582 27.8152 27.732 27.6673 28.0278 27.3715C28.3235 27.0762 28.4714 26.7028 28.4714 26.2513C28.4714 25.7994 28.3235 25.4253 28.0278 25.1291C27.732 24.8329 27.3582 24.6848 26.9063 24.6848H23.8777V21.6562C23.8777 21.2043 23.7298 20.8305 23.434 20.5347C23.1387 20.239 22.7653 20.0911 22.3138 20.0911C21.8619 20.0911 21.4878 20.239 21.1916 20.5347C20.8954 20.8305 20.7474 21.2043 20.7474 21.6562V24.6848H17.7188C17.2668 24.6848 16.893 24.8327 16.5972 25.1285C16.3015 25.4238 16.1536 25.7972 16.1536 26.2487C16.1536 26.7006 16.3015 27.0747 16.5972 27.3709C16.893 27.6671 17.2668 27.8152 17.7188 27.8152H20.7474V30.8438C20.7474 31.2957 20.8952 31.6695 21.191 31.9653C21.4863 32.261 21.8597 32.4089 22.3112 32.4089Z" fill="#E64646"/>
</g>
</svg>
