<svg width="63" height="63" viewBox="0 0 63 63" fill="none" xmlns="http://www.w3.org/2000/svg">
<g id="sync_desktop_24dp_E8EAED_FILL1_wght300_GRAD0_opsz24 1">
<path id="Vector" d="M47.6437 28.5213C47.2701 26.6269 46.608 24.8804 45.6573 23.2818C44.7066 21.6832 43.3024 20.0325 41.4448 18.3297V25.4927H37.5073V11.3584H51.6416V15.2959H44.0088C46.3446 17.3622 48.1014 19.4773 49.2791 21.6412C50.4573 23.8051 51.238 26.0984 51.6213 28.5213H47.6437ZM37.6589 48.8651C36.7502 48.8651 35.9761 48.5455 35.3364 47.9063C34.6973 47.2667 34.3777 46.4925 34.3777 45.5838V37.5579C34.3777 36.6492 34.6973 35.875 35.3364 35.2354C35.9761 34.5962 36.7502 34.2766 37.6589 34.2766H53.1562C54.0649 34.2766 54.8389 34.5962 55.4781 35.2354C56.1177 35.875 56.4375 36.6492 56.4375 37.5579V45.5838C56.4375 46.4925 56.1177 47.2667 55.4781 47.9063C54.8389 48.5455 54.0649 48.8651 53.1562 48.8651H37.6589ZM11.3584 51.6416V47.7041H18.9912C16.3054 45.3753 14.3281 42.8715 13.0594 40.1927C11.7906 37.5139 11.1562 34.65 11.1562 31.6011C11.1562 27.0038 12.5134 22.915 15.2276 19.3345C17.9419 15.7535 21.3972 13.3304 25.5937 12.0652V16.2146C22.4976 17.409 19.9734 19.4062 18.0213 22.2062C16.0696 25.0062 15.0937 28.1378 15.0937 31.6011C15.0937 34.115 15.6102 36.4304 16.6432 38.5475C17.6765 40.6641 19.3139 42.7136 21.5552 44.6959V37.5073H25.4927V51.6416H11.3584ZM31.7527 56.4375V52.5H59.0625V56.4375H31.7527Z" fill="#E64646"/>
</g>
</svg>
